<svg width="240" height="56" viewBox="0 0 240 56" fill="none" xmlns="http://www.w3.org/2000/svg">
<path d="M0.576 10.22V6.242H20.268V10.22H12.474V32H8.406V10.22H0.576ZM27.9906 13.298C33.2466 13.298 37.0086 16.916 37.0626 22.28C37.0626 23.414 36.3246 24.296 35.2446 24.296H22.5366C23.1486 26.834 25.3446 28.508 28.1526 28.508C28.9626 28.508 29.8806 28.292 30.9066 27.716C31.8966 27.158 33.2286 27.356 33.8586 28.328L34.7586 29.66C33.0666 31.334 30.6726 32.324 28.1526 32.324C22.5726 32.324 18.5766 28.346 18.5766 22.82C18.5766 17.312 22.5186 13.298 27.9906 13.298ZM24.1206 20.966H33.1206C32.5266 18.572 30.4926 17.132 27.9906 17.132C25.1646 17.132 22.9686 18.95 22.4646 21.632H22.5186C22.8786 21.164 23.4546 20.966 24.1206 20.966ZM48.7893 32.324C43.2093 32.324 39.2133 28.346 39.2133 22.82C39.2133 17.276 43.2093 13.298 48.7893 13.298C51.0213 13.298 53.8653 14.288 55.4133 16.016L54.5313 17.366C53.9373 18.32 52.7493 18.608 51.7053 18.014C50.7153 17.492 49.6533 17.186 48.7893 17.186C45.4953 17.168 43.1193 19.544 43.1193 22.82C43.1193 26.078 45.4953 28.454 48.7893 28.454C49.6353 28.454 50.6973 28.148 51.7233 27.59C52.7493 26.996 53.9373 27.266 54.5493 28.184L55.4493 29.534C53.8293 31.316 51.1653 32.324 48.7893 32.324ZM68.8801 13.28C73.1461 13.28 75.3601 16.214 75.3601 21.146V32H71.4361V21.578C71.4361 18.392 70.1761 17.096 67.9621 17.096C66.3601 17.096 64.6321 17.978 63.2281 19.292V32H59.3041V5.306H63.2281V15.53C64.6501 14.216 66.5941 13.28 68.8801 13.28ZM106.017 6.242H109.023V32H104.955V13.658C104.955 13.316 105.063 12.776 105.207 12.254H105.171L97.1252 27.626C96.7292 28.4 96.1352 28.778 95.2892 28.778C94.4612 28.778 93.8672 28.4 93.4712 27.626L85.4252 12.254H85.3892C85.5512 12.776 85.6412 13.316 85.6412 13.658V32H81.5732V6.242H84.5792C85.9472 6.242 86.5412 6.638 87.1892 7.826L94.9472 22.208C95.0912 22.478 95.2172 22.964 95.2712 23.558H95.3252C95.3792 22.964 95.5052 22.478 95.6492 22.208L103.389 7.826C104.037 6.638 104.649 6.242 106.017 6.242ZM123.229 13.298C128.485 13.298 132.247 16.916 132.301 22.28C132.301 23.414 131.563 24.296 130.483 24.296H117.775C118.387 26.834 120.583 28.508 123.391 28.508C124.201 28.508 125.119 28.292 126.145 27.716C127.135 27.158 128.467 27.356 129.097 28.328L129.997 29.66C128.305 31.334 125.911 32.324 123.391 32.324C117.811 32.324 113.815 28.346 113.815 22.82C113.815 17.312 117.757 13.298 123.229 13.298ZM119.359 20.966H128.359C127.765 18.572 125.731 17.132 123.229 17.132C120.403 17.132 118.207 18.95 117.703 21.632H117.757C118.117 21.164 118.693 20.966 119.359 20.966ZM147.754 28.508L148.456 30.362C147.214 31.118 145 32.324 142.426 32.324C139.024 32.324 136.738 30.11 136.738 26.384V17.258H133.516V14.864C133.516 13.982 134.236 13.604 134.794 13.604H136.738L136.81 8.798C136.846 7.97 137.278 7.196 138.304 7.196H140.698V13.604H145.882V17.258H140.698V25.484C140.698 27.482 141.778 28.508 143.362 28.508C144.1 28.508 144.766 28.202 145.342 27.896C146.368 27.41 147.43 27.68 147.754 28.508ZM159.616 13.298C164.872 13.298 168.634 16.916 168.688 22.28C168.688 23.414 167.95 24.296 166.87 24.296H154.162C154.774 26.834 156.97 28.508 159.778 28.508C160.588 28.508 161.506 28.292 162.532 27.716C163.522 27.158 164.854 27.356 165.484 28.328L166.384 29.66C164.692 31.334 162.298 32.324 159.778 32.324C154.198 32.324 150.202 28.346 150.202 22.82C150.202 17.312 154.144 13.298 159.616 13.298ZM155.746 20.966H164.746C164.152 18.572 162.118 17.132 159.616 17.132C156.79 17.132 154.594 18.95 154.09 21.632H154.144C154.504 21.164 155.08 20.966 155.746 20.966ZM181.206 13.28C182.718 13.28 183.6 13.676 184.302 13.946L183.906 15.728C183.672 16.826 182.718 17.438 181.584 17.24C181.278 17.186 180.828 17.15 180.486 17.15C178.632 17.15 177.138 18.374 176.202 20.066V32H172.296V13.604H174.474C175.842 13.604 176.202 14.558 176.202 15.476V16.07C177.39 14.432 179.064 13.28 181.206 13.28Z" fill="white"/>
<circle cx="205" cy="45" r="11" transform="rotate(-180 205 45)" fill="white"/>
<rect x="240" y="46" width="236" height="3" transform="rotate(-180 240 46)" fill="white"/>
</svg>
